<?xml version="1.0" encoding="utf-8"?>
<!-- Generator: Adobe Illustrator 24.0.1, SVG Export Plug-In . SVG Version: 6.00 Build 0)  -->
<svg version="1.1" id="Layer_1" xmlns="http://www.w3.org/2000/svg" xmlns:xlink="http://www.w3.org/1999/xlink" x="0px" y="0px"
	 viewBox="0 0 453.2 50.1" style="enable-background:new 0 0 453.2 50.1;" xml:space="preserve">
<style type="text/css">
	.st0{fill-rule:evenodd;clip-rule:evenodd;fill:#FFFFFF;}
	.st1{fill-rule:evenodd;clip-rule:evenodd;fill:#D1E187;}
	.st2{fill-rule:evenodd;clip-rule:evenodd;fill:#8BC53F;}
	.st3{fill-rule:evenodd;clip-rule:evenodd;fill:#81211C;stroke:#CC8B5D;stroke-width:0.25;stroke-miterlimit:2.6131;}
	.st4{fill-rule:evenodd;clip-rule:evenodd;fill:#EB2026;stroke:#CC8B5D;stroke-width:0.25;stroke-miterlimit:2.6131;}
	.st5{fill-rule:evenodd;clip-rule:evenodd;fill:#FBB231;}
	.st6{fill-rule:evenodd;clip-rule:evenodd;fill:#EC1B2E;}
	.st7{fill:none;stroke:#FFFFFF;stroke-width:0.216;stroke-miterlimit:2.6131;}
	.st8{fill:#00589F;}
	.st9{fill:#F9A51A;}
</style>
<title>payments</title>
<g>
	<path class="st0" d="M33.4,9.4h7.7c2.4,0,4.4,2,4.4,4.4v12.8c0,2.4-2,4.4-4.4,4.4h-7.7C31,31,29,29,29,26.6V13.9
		C29,11.4,31,9.4,33.4,9.4L33.4,9.4z"/>
	<path class="st1" d="M43.8,50.1H30.6c-1.9,0-3.5-1.6-3.5-3.5V7.8c0-1.9,1.6-3.5,3.5-3.5h13.2c0.2,0,0.3,0,0.5,0V1.5
		C44.3,0.7,45,0,45.8,0l0,0c0.8,0,1.5,0.7,1.5,1.5v4.8c0,0.2,0,0.4-0.1,0.6c0.1,0.3,0.1,0.6,0.1,0.9v38.7
		C47.3,48.5,45.8,50.1,43.8,50.1L43.8,50.1z M33.4,9.4h7.7c2.4,0,4.4,2,4.4,4.4v12.8c0,2.4-2,4.4-4.4,4.4h-7.7C31,31,29,29,29,26.6
		V13.9C29,11.4,31,9.4,33.4,9.4L33.4,9.4z"/>
	<path class="st2" d="M50.5,10.2h8.4c3.1,0.4,4.5,2.7,4.4,6s-2.2,5-5.3,5.3l-3.1-0.1l0.1,9.3h-4.5V10.2z M55,12.3
		c2.1-0.3,3.7,0.3,3.8,3.6c-0.1,2.9-1.6,3.7-3.8,3.5V12.3z"/>
	<path class="st2" d="M71.1,10h5.3v2.3h-4.2c-2.4,0.4-1.9,3-2,4.9l5.6-0.2v2.8l-5.4-0.1v6.8c0,1.5,1.2,2.7,2.7,2.8c0,0,0,0,0,0h3H77
		v2.1h-0.9l-5.7-0.1c-2-0.1-3.5-1-4.3-4.1L66,14.1C66.1,11.4,67.8,10.1,71.1,10L71.1,10z"/>
	<path class="st2" d="M78.4,15.8c-0.4-4.4,2.1-5.4,5.1-5.8c3.5-0.2,5.7,1.3,6.1,5h-4.1c-0.3-1.9-1.7-2.6-3.1-1.7
		c-1.9,2.3,4.1,6.4,5.8,8c3.1,2.4,2.6,9.2-2.2,10.5l-2.9,0.1c-2.9,0.1-4.7-1.8-5.2-5.3l4.2-0.1c0.2,1.5,0.9,2.4,2.2,2.3
		c2.1-0.4,2.7-2.2,1.2-4.6C82.4,21.7,78.7,19.2,78.4,15.8L78.4,15.8z"/>
	<path class="st2" d="M5,9.3h4.4v1.4c2.7-1.1,4.7-2,6.7-0.1c3.7-1.8,6.6-1.6,8,1.7l0.2,18.4h-4.4V13.2c-0.3-1.5-1.5-1.8-3-1.7v19.2
		h-4.5V13.2c-0.3-1.5-1.5-1.8-3-1.7v19.2H5V9.3z"/>
	<path class="st2" d="M92.1,31.3h4.6V20h3.8v11.3h4.4V15.1c-0.1-3.3-2.6-5.3-6.2-5.4c-4.1,0-6.4,1.9-6.6,5.2
		C92.1,14.9,92.1,31.3,92.1,31.3z M96.7,14c0.2-1.2,0.5-1.7,1.9-1.8c1.3,0,1.8,0.8,1.9,2v3.3h-3.8V14z"/>
	<path class="st3" d="M32.5,18c0.8,1.8,1.8,2.6,3,2.6c-1.9,1.4-4,2.4-6.3,2.9c-1.4-0.1-2.7-0.4-4-0.8C28.3,22.3,30.9,20.6,32.5,18z"
		/>
	<path class="st4" d="M41,13.5l9.2,4.6c-4.7,6.1-12.5,6.3-20.9,5.5C34.6,22.4,39,18.6,41,13.5z"/>
	<polygon class="st5" points="432.7,38.4 433.6,38.4 434.6,38.3 435.5,38.2 436.4,38 437.3,37.8 438.2,37.6 439,37.3 439.9,37 
		440.7,36.6 441.5,36.2 442.3,35.7 443,35.3 443.8,34.7 444.5,34.2 445.1,33.6 445.8,33 446.4,32.3 447,31.7 447.5,31 448.1,30.2 
		448.5,29.5 449,28.7 449.4,27.9 449.8,27.1 450.1,26.2 450.4,25.4 450.6,24.5 450.9,23.6 451,22.7 451.1,21.8 451.2,20.8 
		451.2,19.9 451.2,18.9 451.1,18 451,17 450.9,16.1 450.6,15.2 450.4,14.4 450.1,13.5 449.8,12.7 449.4,11.9 449,11.1 448.5,10.3 
		448.1,9.5 447.5,8.8 447,8.1 446.4,7.4 445.8,6.8 445.1,6.2 444.5,5.6 443.8,5 443,4.5 442.3,4 441.5,3.6 440.7,3.2 439.9,2.8 
		439,2.5 438.2,2.2 437.3,1.9 436.4,1.7 435.5,1.6 434.6,1.5 433.6,1.4 432.7,1.4 431.7,1.4 430.8,1.5 429.8,1.6 428.9,1.7 428,1.9 
		427.1,2.2 426.3,2.5 425.5,2.8 424.6,3.2 423.8,3.6 423.1,4 422.3,4.5 421.6,5 420.9,5.6 420.2,6.2 419.6,6.8 419,7.4 418.4,8.1 
		417.8,8.8 417.3,9.5 416.8,10.3 416.4,11.1 416,11.9 415.6,12.7 415.3,13.5 415,14.4 414.7,15.2 414.5,16.1 414.4,17 414.3,18 
		414.2,18.9 414.2,19.9 414.2,20.8 414.3,21.8 414.4,22.7 414.5,23.6 414.7,24.5 415,25.4 415.3,26.2 415.6,27.1 416,27.9 
		416.4,28.7 416.8,29.5 417.3,30.2 417.8,31 418.4,31.7 419,32.3 419.6,33 420.2,33.6 420.9,34.2 421.6,34.7 422.3,35.3 423.1,35.7 
		423.8,36.2 424.6,36.6 425.5,37 426.3,37.3 427.1,37.6 428,37.8 428.9,38 429.8,38.2 430.8,38.3 431.7,38.4 432.7,38.4 432.7,38.4 
			"/>
	<polygon class="st6" points="407.9,38.4 408.8,38.4 409.8,38.3 410.7,38.2 411.6,38 412.5,37.8 413.4,37.6 414.2,37.3 415.1,37 
		415.9,36.6 416.7,36.2 417.5,35.7 418.2,35.3 418.9,34.7 419.6,34.2 420.3,33.6 421,33 421.6,32.3 422.1,31.7 422.7,31 423.2,30.2 
		423.7,29.5 424.1,28.7 424.5,27.9 424.9,27.1 425.2,26.2 425.5,25.4 425.8,24.5 426,23.6 426.1,22.7 426.3,21.8 426.3,20.8 
		426.4,19.9 426.3,18.9 426.3,18 426.1,17 426,16.1 425.8,15.2 425.5,14.4 425.2,13.5 424.9,12.7 424.5,11.9 424.1,11.1 423.7,10.3 
		423.2,9.5 422.7,8.8 422.1,8.1 421.6,7.4 421,6.8 420.3,6.2 419.6,5.6 418.9,5 418.2,4.5 417.5,4 416.7,3.6 415.9,3.2 415.1,2.8 
		414.2,2.5 413.4,2.2 412.5,1.9 411.6,1.7 410.7,1.6 409.8,1.5 408.8,1.4 407.9,1.4 406.9,1.4 406,1.5 405,1.6 404.1,1.7 403.2,1.9 
		402.3,2.2 401.5,2.5 400.6,2.8 399.8,3.2 399,3.6 398.2,4 397.5,4.5 396.8,5 396,5.6 395.4,6.2 394.7,6.8 394.1,7.4 393.5,8.1 
		393,8.8 392.5,9.5 392,10.3 391.5,11.1 391.1,11.9 390.8,12.7 390.4,13.5 390.1,14.4 389.9,15.2 389.7,16.1 389.5,17 389.4,18 
		389.3,18.9 389.3,19.9 389.3,20.8 389.4,21.8 389.5,22.7 389.7,23.6 389.9,24.5 390.1,25.4 390.4,26.2 390.8,27.1 391.1,27.9 
		391.5,28.7 392,29.5 392.5,30.2 393,31 393.5,31.7 394.1,32.3 394.7,33 395.4,33.6 396,34.2 396.8,34.7 397.5,35.3 398.2,35.7 
		399,36.2 399.8,36.6 400.6,37 401.5,37.3 402.3,37.6 403.2,37.8 404.1,38 405,38.2 406,38.3 406.9,38.4 407.9,38.4 407.9,38.4 	"/>
	<polygon class="st5" points="418.1,8.5 427.9,8.5 427.9,7.5 418.9,7.5 418.1,8.5 418.1,8.5 	"/>
	<polygon class="st5" points="416.6,10.7 427.9,10.7 427.9,9.7 417.2,9.7 416.6,10.7 416.6,10.7 	"/>
	<polygon class="st5" points="415.5,12.9 427.9,12.9 427.9,11.9 416,11.9 415.5,12.9 415.5,12.9 	"/>
	<polygon class="st5" points="414.8,15.2 427.9,15.2 427.9,14.2 415.1,14.2 414.8,15.2 414.8,15.2 	"/>
	<polygon class="st5" points="415.2,26 428,26 428,25 414.9,25 415.2,26 415.2,26 	"/>
	<polygon class="st5" points="416.1,28.2 428,28.2 428,27.2 415.7,27.2 416.1,28.2 416.1,28.2 	"/>
	<polygon class="st5" points="417.5,30.5 428,30.5 428,29.5 416.8,29.5 417.5,30.5 417.5,30.5 	"/>
	<polygon class="st5" points="419.3,32.7 428,32.7 428,31.7 418.4,31.7 419.3,32.7 419.3,32.7 	"/>
	<polygon class="st5" points="414.3,17.4 427.9,17.4 427.9,16.4 414.5,16.4 414.3,17.4 414.3,17.4 	"/>
	<polygon class="st5" points="422.6,23.8 427.8,23.8 427.8,22.8 422.8,22.8 422.6,23.8 422.6,23.8 	"/>
	<polygon class="st5" points="423,21.5 427.8,21.5 427.8,20.5 423.2,20.5 423,21.5 423,21.5 	"/>
	<polygon class="st5" points="414,20.5 415.3,20.5 415.3,21.5 414,21.5 414,20.5 414,20.5 	"/>
	<polygon class="st0" points="411.5,19.3 411.4,19.3 411.3,19.3 411.2,19.3 411.1,19.3 411,19.2 411,19.2 410.9,19.2 410.8,19.2 
		410.7,19.2 410.6,19.2 410.5,19.2 410.4,19.2 410.2,19.2 410.1,19.2 409.9,19.2 409.8,19.2 409.6,19.2 409.5,19.2 409.4,19.3 
		409.3,19.3 409.2,19.4 409.1,19.4 409.1,19.5 409,19.5 409,19.6 409,19.7 408.9,19.7 408.9,19.8 409,19.9 409,20 409,20.1 
		409.1,20.1 409.2,20.3 409.4,20.4 409.5,20.4 409.7,20.5 409.9,20.6 410.1,20.6 410.3,20.7 410.5,20.8 410.7,20.9 410.9,21 
		411.1,21.2 411.2,21.4 411.3,21.6 411.4,21.9 411.4,22.2 411.4,22.6 411.3,22.9 411.2,23.2 411.1,23.4 411,23.6 410.9,23.8 
		410.7,24 410.5,24.1 410.3,24.2 410.1,24.3 409.9,24.4 409.7,24.5 409.5,24.5 409.3,24.5 409.1,24.6 408.9,24.6 408.7,24.6 
		408.4,24.6 408.2,24.6 407.9,24.6 407.7,24.6 407.5,24.6 407.4,24.5 407.2,24.5 407.1,24.5 407,24.5 406.8,24.5 406.7,24.5 
		406.6,24.4 406.5,24.4 406.4,24.4 406.3,24.3 406.2,24.3 406.5,22.9 406.5,22.9 406.6,22.9 406.7,23 406.8,23 406.9,23 407,23 
		407.2,23.1 407.3,23.1 407.5,23.1 407.6,23.1 407.8,23.2 408,23.2 408.2,23.2 408.4,23.2 408.5,23.2 408.7,23.2 408.9,23.1 
		409,23.1 409.1,23 409.2,23 409.3,22.9 409.4,22.8 409.4,22.7 409.4,22.6 409.4,22.4 409.4,22.2 409.3,22.1 409.1,22 408.9,21.9 
		408.7,21.8 408.5,21.7 408.2,21.6 408,21.5 407.7,21.4 407.5,21.2 407.3,21 407.1,20.8 407,20.5 407,20.2 407,19.8 407,19.5 
		407.1,19.3 407.1,19.1 407.2,18.9 407.3,18.7 407.4,18.5 407.5,18.4 407.7,18.2 407.9,18.1 408.1,18 408.3,17.9 408.5,17.9 
		408.8,17.8 409.1,17.8 409.5,17.7 409.8,17.7 410.1,17.7 410.3,17.7 410.5,17.7 410.7,17.7 410.8,17.8 411,17.8 411.1,17.8 
		411.2,17.8 411.3,17.8 411.4,17.8 411.5,17.8 411.5,17.8 411.6,17.9 411.7,17.9 411.7,17.9 411.8,17.9 411.5,19.3 411.5,19.3 	"/>
	<polyline class="st7" points="411.5,19.3 411.5,19.3 411.4,19.3 411.3,19.3 411.2,19.3 411.1,19.3 411,19.2 411,19.2 410.9,19.2 
		410.8,19.2 410.7,19.2 410.6,19.2 410.5,19.2 410.4,19.2 410.2,19.2 410.1,19.2 409.9,19.2 409.8,19.2 409.8,19.2 409.6,19.2 
		409.5,19.2 409.4,19.3 409.3,19.3 409.2,19.4 409.1,19.4 409.1,19.5 409,19.5 409,19.6 409,19.7 408.9,19.7 408.9,19.8 409,19.9 
		409,20 409,20.1 409.1,20.1 409.1,20.1 409.2,20.3 409.4,20.4 409.5,20.4 409.7,20.5 409.9,20.6 410.1,20.6 410.3,20.7 410.5,20.8 
		410.7,20.9 410.9,21 411.1,21.2 411.2,21.4 411.3,21.6 411.4,21.9 411.4,22.2 411.4,22.6 411.4,22.6 411.3,22.9 411.2,23.2 
		411.1,23.4 411,23.6 410.9,23.8 410.7,24 410.5,24.1 410.3,24.2 410.1,24.3 409.9,24.4 409.7,24.5 409.5,24.5 409.3,24.5 
		409.1,24.6 408.9,24.6 408.7,24.6 408.7,24.6 408.4,24.6 408.2,24.6 407.9,24.6 407.7,24.6 407.5,24.6 407.4,24.5 407.2,24.5 
		407.1,24.5 407,24.5 406.8,24.5 406.7,24.5 406.6,24.4 406.5,24.4 406.4,24.4 406.3,24.3 406.2,24.3 406.5,22.9 406.5,22.9 
		406.5,22.9 406.6,22.9 406.7,23 406.8,23 406.9,23 407,23 407.2,23.1 407.3,23.1 407.5,23.1 407.6,23.1 407.8,23.2 408,23.2 
		408.2,23.2 408.4,23.2 408.5,23.2 408.7,23.2 408.7,23.2 408.9,23.1 409,23.1 409.1,23 409.2,23 409.3,22.9 409.4,22.8 409.4,22.7 
		409.4,22.6 409.4,22.6 409.4,22.4 409.4,22.2 409.3,22.1 409.1,22 408.9,21.9 408.7,21.8 408.5,21.7 408.2,21.6 408,21.5 
		407.7,21.4 407.5,21.2 407.3,21 407.1,20.8 407,20.5 407,20.2 407,19.8 407,19.8 407,19.5 407.1,19.3 407.1,19.1 407.2,18.9 
		407.3,18.7 407.4,18.5 407.5,18.4 407.7,18.2 407.9,18.1 408.1,18 408.3,17.9 408.5,17.9 408.8,17.8 409.1,17.8 409.5,17.7 
		409.8,17.7 409.8,17.7 410.1,17.7 410.3,17.7 410.5,17.7 410.7,17.7 410.8,17.8 411,17.8 411.1,17.8 411.2,17.8 411.3,17.8 
		411.4,17.8 411.5,17.8 411.5,17.8 411.6,17.9 411.7,17.9 411.7,17.9 411.8,17.9 411.5,19.3 	"/>
	<polygon class="st0" points="412.9,16.3 414.7,16.3 414.4,17.9 415.5,17.9 415.2,19.3 414.1,19.2 413.5,22.7 413.5,22.9 413.5,23 
		413.6,23 413.7,23.1 413.8,23.1 413.9,23.2 414.1,23.2 414.2,23.2 414.4,23.2 414.5,23.2 414.6,23.2 414.7,23.2 414.8,23.1 
		414.8,23.1 414.9,23.1 414.9,23.1 414.7,24.3 414.6,24.3 414.6,24.3 414.5,24.3 414.5,24.4 414.4,24.4 414.4,24.4 414.3,24.4 
		414.3,24.4 414.2,24.5 414.2,24.5 414.1,24.5 414,24.5 413.9,24.5 413.8,24.5 413.7,24.5 413.6,24.5 413.1,24.5 412.9,24.5 
		412.7,24.5 412.5,24.5 412.3,24.4 412.2,24.4 412,24.3 411.9,24.2 411.9,24.1 411.8,24.1 411.8,24 411.7,23.9 411.7,23.7 
		411.7,23.6 411.7,23.5 411.7,23.3 411.7,23.2 412.9,16.3 412.9,16.3 	"/>
	<polyline class="st7" points="412.9,16.3 414.7,16.3 414.4,17.9 415.5,17.9 415.2,19.3 414.1,19.2 413.5,22.7 413.5,22.7 
		413.5,22.9 413.5,23 413.6,23 413.7,23.1 413.8,23.1 413.9,23.2 414.1,23.2 414.2,23.2 414.2,23.2 414.4,23.2 414.5,23.2 
		414.6,23.2 414.7,23.2 414.8,23.1 414.8,23.1 414.9,23.1 414.9,23.1 414.7,24.3 414.7,24.3 414.6,24.3 414.6,24.3 414.5,24.3 
		414.5,24.4 414.4,24.4 414.4,24.4 414.3,24.4 414.3,24.4 414.2,24.5 414.2,24.5 414.1,24.5 414,24.5 413.9,24.5 413.8,24.5 
		413.7,24.5 413.6,24.5 413.1,24.5 413.1,24.5 412.9,24.5 412.7,24.5 412.5,24.5 412.3,24.4 412.2,24.4 412,24.3 411.9,24.2 
		411.9,24.1 411.8,24.1 411.8,24 411.7,23.9 411.7,23.7 411.7,23.6 411.7,23.5 411.7,23.3 411.7,23.2 412.9,16.3 	"/>
	<polygon class="st0" points="416.8,21.6 416.8,21.7 416.8,21.8 416.8,22 416.9,22.1 416.9,22.2 416.9,22.3 417,22.4 417.1,22.5 
		417.2,22.6 417.3,22.7 417.4,22.8 417.5,22.9 417.6,23 417.7,23 417.8,23.1 418,23.1 418.1,23.1 418.3,23.1 418.5,23.2 418.6,23.2 
		418.8,23.2 418.9,23.2 419.1,23.2 419.3,23.2 419.4,23.1 419.6,23.1 419.8,23.1 420,23 420.1,22.9 420.3,22.9 420.5,22.8 
		420.7,22.7 420.4,24.2 420.3,24.3 420.2,24.3 420.1,24.3 420,24.4 419.9,24.4 419.8,24.4 419.7,24.5 419.6,24.5 419.5,24.5 
		419.4,24.5 419.3,24.5 419.1,24.5 419,24.5 418.8,24.5 418.6,24.5 418.4,24.5 418.1,24.5 417.8,24.5 417.5,24.5 417.1,24.4 
		416.8,24.3 416.5,24.2 416.3,24 416,23.8 415.8,23.6 415.5,23.4 415.4,23.1 415.2,22.8 415.1,22.4 415,22 415,21.5 415,21 
		415.1,20.8 415.1,20.6 415.1,20.3 415.2,20 415.3,19.8 415.4,19.5 415.6,19.2 415.8,19 415.9,18.7 416.2,18.5 416.5,18.3 
		416.8,18.1 417.1,17.9 417.5,17.8 418,17.8 418.5,17.7 418.8,17.7 419,17.8 419.3,17.8 419.5,17.9 419.8,18 420,18.1 420.2,18.2 
		420.4,18.4 420.6,18.6 420.8,18.9 420.9,19.1 421,19.5 421,19.9 421,20.3 421,20.8 420.9,21.3 420.9,21.6 416.3,21.6 416.6,20.4 
		419.4,20.4 419.4,20.3 419.4,20.1 419.4,20 419.3,19.9 419.3,19.7 419.2,19.6 419.2,19.5 419.1,19.5 419,19.4 419,19.3 418.9,19.3 
		418.8,19.2 418.7,19.2 418.6,19.1 418.5,19.1 418.4,19.1 418.2,19.1 418.1,19.1 418,19.2 417.9,19.2 417.8,19.3 417.7,19.3 
		417.6,19.4 417.5,19.5 417.5,19.5 417.4,19.6 417.3,19.7 417.3,19.8 417.2,20 417.1,20.1 417.1,20.2 417.1,20.3 416.8,21.6 
		416.8,21.6 	"/>
	<polyline class="st7" points="416.8,21.6 416.8,21.6 416.8,21.7 416.8,21.8 416.8,22 416.9,22.1 416.9,22.2 416.9,22.3 417,22.4 
		417.1,22.5 417.2,22.6 417.3,22.7 417.4,22.8 417.5,22.9 417.6,23 417.7,23 417.8,23.1 418,23.1 418,23.1 418.1,23.1 418.3,23.1 
		418.5,23.2 418.6,23.2 418.8,23.2 418.9,23.2 419.1,23.2 419.3,23.2 419.4,23.1 419.6,23.1 419.8,23.1 420,23 420.1,22.9 
		420.3,22.9 420.5,22.8 420.7,22.7 420.4,24.2 420.4,24.2 420.3,24.3 420.2,24.3 420.1,24.3 420,24.4 419.9,24.4 419.8,24.4 
		419.7,24.5 419.6,24.5 419.5,24.5 419.4,24.5 419.3,24.5 419.1,24.5 419,24.5 418.8,24.5 418.6,24.5 418.4,24.5 418.4,24.5 
		418.1,24.5 417.8,24.5 417.5,24.5 417.1,24.4 416.8,24.3 416.5,24.2 416.3,24 416,23.8 415.8,23.6 415.5,23.4 415.4,23.1 
		415.2,22.8 415.1,22.4 415,22 415,21.5 415,21 415,21 415.1,20.8 415.1,20.6 415.1,20.3 415.2,20 415.3,19.8 415.4,19.5 
		415.6,19.2 415.8,19 415.9,18.7 416.2,18.5 416.5,18.3 416.8,18.1 417.1,17.9 417.5,17.8 418,17.8 418.5,17.7 418.5,17.7 
		418.8,17.7 419,17.8 419.3,17.8 419.5,17.9 419.8,18 420,18.1 420.2,18.2 420.4,18.4 420.6,18.6 420.8,18.9 420.9,19.1 421,19.5 
		421,19.9 421,20.3 421,20.8 420.9,21.3 420.9,21.6 416.3,21.6 416.6,20.4 419.4,20.4 419.4,20.4 419.4,20.3 419.4,20.1 419.4,20 
		419.3,19.9 419.3,19.7 419.2,19.6 419.2,19.5 419.1,19.5 419,19.4 419,19.3 418.9,19.3 418.8,19.2 418.7,19.2 418.6,19.1 
		418.5,19.1 418.4,19.1 418.4,19.1 418.2,19.1 418.1,19.1 418,19.2 417.9,19.2 417.8,19.3 417.7,19.3 417.6,19.4 417.5,19.5 
		417.5,19.5 417.4,19.6 417.3,19.7 417.3,19.8 417.2,20 417.1,20.1 417.1,20.2 417.1,20.3 416.8,21.6 	"/>
	<polygon class="st0" points="431.7,18.2 431.7,18.2 431.6,18.1 431.5,18.1 431.4,18.1 431.3,18 431.2,18 431.1,18 431,17.9 
		430.9,17.9 430.7,17.9 430.6,17.8 430.5,17.8 430.3,17.8 430.2,17.8 430,17.8 429.9,17.8 429.7,17.8 429.6,17.8 429.4,17.8 
		429.2,17.8 429,17.9 428.9,18 428.7,18 428.5,18.2 428.4,18.3 428.2,18.5 428,18.7 427.9,18.9 427.8,19.2 427.6,19.5 427.5,19.8 
		427.4,20.2 427.4,20.5 427.3,20.7 427.3,20.9 427.3,21.1 427.4,21.3 427.4,21.5 427.5,21.7 427.5,21.9 427.6,22.1 427.7,22.2 
		427.9,22.4 428,22.5 428.2,22.6 428.4,22.7 428.6,22.8 428.8,22.9 428.9,22.9 429,22.9 429.1,22.9 429.2,22.9 429.4,22.9 
		429.5,22.9 429.7,22.9 429.8,22.9 430,22.9 430.1,22.9 430.3,22.8 430.5,22.8 430.6,22.7 430.8,22.6 430.9,22.5 431,22.4 
		430.7,24.1 430.7,24.1 430.7,24.1 430.6,24.2 430.6,24.2 430.5,24.3 430.4,24.3 430.3,24.4 430.2,24.4 430,24.4 429.9,24.5 
		429.7,24.5 429.5,24.5 429.2,24.5 429,24.5 428.6,24.5 428.3,24.5 428,24.5 427.7,24.4 427.4,24.3 427.1,24.2 426.9,24 426.6,23.9 
		426.3,23.6 426.1,23.4 425.9,23.1 425.7,22.8 425.6,22.5 425.5,22.1 425.4,21.6 425.4,21.2 425.4,20.7 425.5,20.2 425.5,20 
		425.5,19.7 425.6,19.5 425.7,19.2 425.8,19 425.8,18.8 425.9,18.6 426,18.4 426.1,18.2 426.2,18 426.3,17.8 426.4,17.7 426.5,17.5 
		426.6,17.4 426.8,17.2 426.9,17.1 427,17 427.2,16.9 427.3,16.8 427.5,16.6 427.7,16.5 427.8,16.5 428,16.4 428.2,16.3 428.4,16.3 
		428.6,16.2 428.8,16.2 429,16.1 429.2,16.1 429.4,16.1 429.6,16.1 429.9,16.1 430.1,16.1 430.3,16.1 430.5,16.1 430.7,16.1 
		430.8,16.1 431,16.2 431.2,16.2 431.3,16.3 431.5,16.3 431.6,16.3 431.7,16.4 431.8,16.4 431.9,16.4 432,16.5 432,16.5 432.1,16.5 
		431.7,18.2 431.7,18.2 	"/>
	<polyline class="st7" points="431.7,18.2 431.7,18.2 431.7,18.2 431.6,18.1 431.5,18.1 431.4,18.1 431.3,18 431.2,18 431.1,18 
		431,17.9 430.9,17.9 430.7,17.9 430.6,17.8 430.5,17.8 430.3,17.8 430.2,17.8 430,17.8 429.9,17.8 429.9,17.8 429.7,17.8 
		429.6,17.8 429.4,17.8 429.2,17.8 429,17.9 428.9,18 428.7,18 428.5,18.2 428.4,18.3 428.2,18.5 428,18.7 427.9,18.9 427.8,19.2 
		427.6,19.5 427.5,19.8 427.4,20.2 427.4,20.2 427.4,20.5 427.3,20.7 427.3,20.9 427.3,21.1 427.4,21.3 427.4,21.5 427.5,21.7 
		427.5,21.9 427.6,22.1 427.7,22.2 427.9,22.4 428,22.5 428.2,22.6 428.4,22.7 428.6,22.8 428.8,22.9 428.8,22.9 428.9,22.9 
		429,22.9 429.1,22.9 429.2,22.9 429.4,22.9 429.5,22.9 429.7,22.9 429.8,22.9 430,22.9 430.1,22.9 430.3,22.8 430.5,22.8 
		430.6,22.7 430.8,22.6 430.9,22.5 431,22.4 430.7,24.1 430.7,24.1 430.7,24.1 430.7,24.1 430.6,24.2 430.6,24.2 430.5,24.3 
		430.4,24.3 430.3,24.4 430.2,24.4 430,24.4 429.9,24.5 429.7,24.5 429.5,24.5 429.2,24.5 429,24.5 428.6,24.5 428.3,24.5 
		428.3,24.5 428,24.5 427.7,24.4 427.4,24.3 427.1,24.2 426.9,24 426.6,23.9 426.3,23.6 426.1,23.4 425.9,23.1 425.7,22.8 
		425.6,22.5 425.5,22.1 425.4,21.6 425.4,21.2 425.4,20.7 425.5,20.2 425.5,20.2 425.5,20 425.5,19.7 425.6,19.5 425.7,19.2 
		425.8,19 425.8,18.8 425.9,18.6 426,18.4 426.1,18.2 426.2,18 426.3,17.8 426.4,17.7 426.5,17.5 426.6,17.4 426.8,17.2 426.9,17.1 
		427,17 427.2,16.9 427.3,16.8 427.5,16.6 427.7,16.5 427.8,16.5 428,16.4 428.2,16.3 428.4,16.3 428.6,16.2 428.8,16.2 429,16.1 
		429.2,16.1 429.4,16.1 429.6,16.1 429.9,16.1 429.9,16.1 430.1,16.1 430.3,16.1 430.5,16.1 430.7,16.1 430.8,16.1 431,16.2 
		431.2,16.2 431.3,16.3 431.5,16.3 431.6,16.3 431.7,16.4 431.8,16.4 431.9,16.4 432,16.5 432,16.5 432.1,16.5 431.7,18.2 	"/>
	<polygon class="st0" points="447.1,24.5 445.4,24.5 445.5,23.9 445.5,23.8 445.4,23.9 445.3,24 445.2,24.1 445.1,24.2 445,24.3 
		444.9,24.4 444.8,24.4 444.6,24.5 444.5,24.5 444.4,24.5 444.3,24.6 444.2,24.6 444,24.6 443.9,24.6 443.8,24.6 443.7,24.6 
		443.4,24.6 443,24.5 442.8,24.4 442.5,24.3 442.3,24.1 442.1,23.9 441.9,23.7 441.8,23.4 441.6,23.1 441.5,22.8 441.5,22.5 
		441.4,22.2 441.4,21.9 441.4,21.6 441.5,21.3 441.5,20.9 441.6,20.6 441.7,20.2 441.8,19.9 442,19.6 442.2,19.3 442.4,19.1 
		442.5,18.8 442.8,18.6 443,18.5 443.2,18.3 443.4,18.1 443.7,18 443.9,18 444.2,17.9 444.4,17.9 444.7,17.9 444.9,17.9 445,17.9 
		445.2,17.9 445.4,18 445.5,18 445.6,18.1 445.7,18.1 445.9,18.2 446,18.3 446,18.4 446.1,18.4 446.2,18.5 446.3,18.6 446.3,18.7 
		446.4,18.8 446.4,18.8 446.4,18.8 446.9,16.4 448.5,16.4 447.1,24.5 447.1,24.5 	"/>
	<polyline class="st7" points="447.1,24.5 445.4,24.5 445.5,23.9 445.5,23.8 445.5,23.8 445.4,23.9 445.3,24 445.2,24.1 445.1,24.2 
		445,24.3 444.9,24.4 444.8,24.4 444.6,24.5 444.5,24.5 444.4,24.5 444.3,24.6 444.2,24.6 444,24.6 443.9,24.6 443.8,24.6 
		443.7,24.6 443.7,24.6 443.4,24.6 443,24.5 442.8,24.4 442.5,24.3 442.3,24.1 442.1,23.9 441.9,23.7 441.8,23.4 441.6,23.1 
		441.5,22.8 441.5,22.5 441.4,22.2 441.4,21.9 441.4,21.6 441.5,21.3 441.5,20.9 441.5,20.9 441.6,20.6 441.7,20.2 441.8,19.9 
		442,19.6 442.2,19.3 442.4,19.1 442.5,18.8 442.8,18.6 443,18.5 443.2,18.3 443.4,18.1 443.7,18 443.9,18 444.2,17.9 444.4,17.9 
		444.7,17.9 444.7,17.9 444.9,17.9 445,17.9 445.2,17.9 445.4,18 445.5,18 445.6,18.1 445.7,18.1 445.9,18.2 446,18.3 446,18.4 
		446.1,18.4 446.2,18.5 446.3,18.6 446.3,18.7 446.4,18.8 446.4,18.8 446.4,18.8 446.9,16.4 448.5,16.4 447.1,24.5 	"/>
	<polygon class="st5" points="444.3,23 444.5,23 444.6,23 444.8,22.9 444.9,22.9 445.1,22.8 445.2,22.7 445.3,22.6 445.4,22.5 
		445.5,22.4 445.6,22.2 445.7,22.1 445.8,21.9 445.8,21.8 445.9,21.6 445.9,21.4 445.9,21.3 446,21.1 446,20.9 446,20.8 446,20.6 
		446,20.4 445.9,20.3 445.9,20.1 445.8,20 445.8,19.8 445.7,19.7 445.6,19.6 445.5,19.5 445.4,19.5 445.3,19.4 445.2,19.4 
		445.1,19.4 444.9,19.4 444.7,19.4 444.6,19.5 444.5,19.5 444.3,19.6 444.2,19.7 444.1,19.8 444,19.9 443.9,20 443.8,20.2 
		443.7,20.4 443.6,20.5 443.6,20.7 443.5,20.9 443.5,21 443.5,21.2 443.4,21.5 443.4,21.8 443.5,22.1 443.6,22.4 443.7,22.6 
		443.9,22.9 444,23 444.3,23 444.3,23 	"/>
	<polygon class="st0" points="405.9,23.2 405.7,24.5 404.1,24.5 404.1,24.3 404.2,24.1 404.2,23.9 404.2,23.8 404.1,23.9 404,24 
		403.9,24.1 403.8,24.2 403.6,24.3 403.5,24.3 403.3,24.4 403.1,24.5 403,24.5 402.8,24.6 402.6,24.6 402.4,24.6 402.2,24.6 
		402,24.6 401.9,24.6 401.7,24.6 401.5,24.5 401.3,24.5 401.1,24.4 401,24.3 400.8,24.2 400.7,24.1 400.6,24 400.5,23.9 400.4,23.7 
		400.4,23.6 400.3,23.5 400.3,23.3 400.3,23.2 400.2,23 400.2,22.9 400.2,22.8 400.2,22.5 400.3,22.3 400.3,22.1 400.4,21.9 
		400.5,21.6 400.6,21.5 400.8,21.3 400.9,21.1 401.1,21 401.2,20.9 401.4,20.7 401.6,20.6 401.8,20.5 402,20.5 402.2,20.4 
		402.5,20.4 402.5,20.4 402.5,20.4 402.5,20.4 402.6,20.4 402.7,20.4 402.8,20.4 402.9,20.3 403,20.3 403.1,20.3 403.2,20.3 
		403.3,20.3 403.4,20.3 403.5,20.3 403.6,20.3 403.7,20.3 403.7,20.3 403.9,20.3 404,20.3 404.2,20.3 404.3,20.3 404.4,20.3 
		404.5,20.3 404.6,20.3 404.6,20.3 404.6,20.3 404.6,20.1 404.7,20 404.7,19.9 404.7,19.8 404.6,19.6 404.5,19.5 404.4,19.4 
		404.3,19.3 404.2,19.3 404,19.3 403.9,19.2 403.7,19.2 403.5,19.2 403.3,19.2 403.1,19.2 402.9,19.2 402.7,19.3 402.5,19.3 
		402.3,19.3 402.1,19.3 401.9,19.4 401.8,19.4 401.6,19.4 401.5,19.5 401.4,19.5 401.3,19.5 401.2,19.6 401.7,18.1 401.8,18 
		401.9,18 402.1,17.9 402.2,17.9 402.4,17.9 402.5,17.8 402.7,17.8 402.9,17.8 403.1,17.8 403.2,17.8 403.4,17.8 403.6,17.8 
		403.8,17.8 404,17.8 404.3,17.8 404.5,17.8 404.6,17.8 404.8,17.8 405,17.9 405.2,17.9 405.4,18 405.6,18.1 405.8,18.2 406,18.3 
		406.1,18.5 406.3,18.6 406.4,18.8 406.5,19 406.5,19.2 406.6,19.4 406.6,19.6 406.5,19.9 405.9,23.2 405.9,23.2 	"/>
	<polyline class="st7" points="405.9,23.2 405.7,24.5 404.1,24.5 404.1,24.5 404.1,24.3 404.2,24.1 404.2,23.9 404.2,23.8 
		404.2,23.8 404.1,23.9 404,24 403.9,24.1 403.8,24.2 403.6,24.3 403.5,24.3 403.3,24.4 403.1,24.5 403,24.5 402.8,24.6 402.6,24.6 
		402.4,24.6 402.2,24.6 402,24.6 401.9,24.6 401.7,24.6 401.7,24.6 401.5,24.5 401.3,24.5 401.1,24.4 401,24.3 400.8,24.2 
		400.7,24.1 400.6,24 400.5,23.9 400.4,23.7 400.4,23.6 400.3,23.5 400.3,23.3 400.3,23.2 400.2,23 400.2,22.9 400.2,22.8 
		400.2,22.8 400.2,22.5 400.3,22.3 400.3,22.1 400.4,21.9 400.5,21.6 400.6,21.5 400.8,21.3 400.9,21.1 401.1,21 401.2,20.9 
		401.4,20.7 401.6,20.6 401.8,20.5 402,20.5 402.2,20.4 402.5,20.4 402.5,20.4 402.5,20.4 402.5,20.4 402.5,20.4 402.6,20.4 
		402.7,20.4 402.8,20.4 402.9,20.3 403,20.3 403.1,20.3 403.2,20.3 403.3,20.3 403.4,20.3 403.5,20.3 403.6,20.3 403.7,20.3 
		403.7,20.3 403.7,20.3 403.9,20.3 404,20.3 404.2,20.3 404.3,20.3 404.4,20.3 404.5,20.3 404.6,20.3 404.6,20.3 404.6,20.3 
		404.6,20.3 404.6,20.1 404.7,20 404.7,19.9 404.7,19.9 404.7,19.8 404.6,19.6 404.5,19.5 404.4,19.4 404.3,19.3 404.2,19.3 
		404,19.3 403.9,19.2 403.9,19.2 403.7,19.2 403.5,19.2 403.3,19.2 403.1,19.2 402.9,19.2 402.7,19.3 402.5,19.3 402.3,19.3 
		402.1,19.3 401.9,19.4 401.8,19.4 401.6,19.4 401.5,19.5 401.4,19.5 401.3,19.5 401.2,19.6 401.7,18.1 401.7,18.1 401.8,18 
		401.9,18 402.1,17.9 402.2,17.9 402.4,17.9 402.5,17.8 402.7,17.8 402.9,17.8 403.1,17.8 403.2,17.8 403.4,17.8 403.6,17.8 
		403.8,17.8 404,17.8 404.3,17.8 404.5,17.8 404.5,17.8 404.6,17.8 404.8,17.8 405,17.9 405.2,17.9 405.4,18 405.6,18.1 405.8,18.2 
		406,18.3 406.1,18.5 406.3,18.6 406.4,18.8 406.5,19 406.5,19.2 406.6,19.4 406.6,19.6 406.5,19.9 405.9,23.2 	"/>
	<polygon class="st6" points="404.4,21.5 404.4,21.5 404.4,21.5 404.3,21.5 404.3,21.4 404.2,21.4 404.1,21.4 404,21.4 403.9,21.4 
		403.8,21.4 403.7,21.4 403.6,21.5 403.5,21.5 403.4,21.5 403.4,21.5 403.3,21.5 403.2,21.5 403.2,21.5 403.1,21.6 403,21.6 
		403,21.6 402.9,21.6 402.8,21.7 402.7,21.7 402.6,21.8 402.5,21.9 402.5,21.9 402.4,22 402.3,22.1 402.3,22.1 402.2,22.2 
		402.2,22.3 402.2,22.4 402.2,22.6 402.2,22.8 402.3,22.9 402.3,23 402.4,23.1 402.5,23.1 402.6,23.1 402.7,23.2 402.9,23.1 
		403.1,23.1 403.3,23.1 403.4,23.1 403.5,23 403.6,23 403.8,22.9 403.8,22.9 403.9,22.8 404,22.7 404.1,22.6 404.1,22.6 404.1,22.5 
		404.2,22.4 404.2,22.4 404.2,22.3 404.3,22.1 404.3,21.9 404.4,21.7 404.4,21.5 404.4,21.5 	"/>
	<polygon class="st0" points="392.8,24.5 391.1,24.5 392.5,16.3 395.4,16.3 395.7,21.2 397.8,16.3 400.9,16.3 399.4,24.5 
		397.7,24.5 398.8,18.4 398.7,18.4 396.2,24.5 394.2,24.5 394.2,24.3 394.2,23.6 394.1,22.6 394.1,21.5 394,20.4 393.9,19.4 
		393.9,18.7 393.9,18.4 393.9,18.4 393.8,18.4 393.8,18.4 393.8,18.4 392.8,24.5 392.8,24.5 	"/>
	<polyline class="st7" points="392.8,24.5 391.1,24.5 392.5,16.3 395.4,16.3 395.7,21.2 397.8,16.3 400.9,16.3 399.4,24.5 
		397.7,24.5 398.8,18.4 398.7,18.4 396.2,24.5 394.2,24.5 394.2,24.5 394.2,24.3 394.2,23.6 394.1,22.6 394.1,21.5 394,20.4 
		393.9,19.4 393.9,18.7 393.9,18.4 393.9,18.4 393.9,18.4 393.8,18.4 393.8,18.4 393.8,18.4 392.8,24.5 	"/>
	<polygon class="st0" points="436.9,23.2 436.7,24.5 435.1,24.5 435.1,24.3 435.1,24.1 435.1,23.9 435.1,23.8 435.1,23.9 435,24 
		434.9,24.1 434.7,24.2 434.6,24.3 434.5,24.3 434.3,24.4 434.1,24.5 434,24.5 433.8,24.6 433.6,24.6 433.4,24.6 433.3,24.6 
		433.1,24.6 432.9,24.6 432.8,24.6 432.5,24.5 432.3,24.5 432.1,24.4 432,24.3 431.9,24.2 431.7,24.1 431.6,24 431.5,23.9 
		431.5,23.7 431.4,23.6 431.4,23.5 431.3,23.3 431.3,23.2 431.3,23 431.3,22.9 431.3,22.8 431.3,22.5 431.3,22.3 431.4,22.1 
		431.5,21.9 431.6,21.6 431.7,21.5 431.8,21.3 432,21.1 432.1,21 432.3,20.9 432.5,20.7 432.7,20.6 432.9,20.5 433.1,20.5 
		433.3,20.4 433.5,20.4 433.5,20.4 433.5,20.4 433.6,20.4 433.6,20.4 433.7,20.4 433.8,20.4 433.9,20.3 434,20.3 434.1,20.3 
		434.2,20.3 434.3,20.3 434.4,20.3 434.5,20.3 434.6,20.3 434.7,20.3 434.8,20.3 434.9,20.3 435.1,20.3 435.2,20.3 435.4,20.3 
		435.5,20.3 435.6,20.3 435.6,20.3 435.6,20.3 435.7,20.3 435.7,20.1 435.7,20 435.7,19.9 435.7,19.8 435.6,19.6 435.5,19.5 
		435.5,19.4 435.4,19.3 435.2,19.3 435.1,19.3 434.9,19.2 434.8,19.2 434.6,19.2 434.4,19.2 434.2,19.2 434,19.2 433.8,19.3 
		433.6,19.3 433.4,19.3 433.2,19.3 433,19.4 432.8,19.4 432.7,19.4 432.5,19.5 432.4,19.5 432.4,19.5 432.3,19.6 432.7,18.1 
		432.9,18 433,18 433.1,17.9 433.3,17.9 433.5,17.9 433.6,17.8 433.8,17.8 433.9,17.8 434.1,17.8 434.3,17.8 434.5,17.8 434.7,17.8 
		434.9,17.8 435.1,17.8 435.3,17.8 435.5,17.8 435.7,17.8 435.9,17.8 436,17.9 436.3,17.9 436.4,18 436.6,18.1 436.8,18.2 437,18.3 
		437.1,18.5 437.3,18.6 437.4,18.8 437.5,19 437.6,19.2 437.6,19.4 437.6,19.6 437.6,19.9 436.9,23.2 436.9,23.2 	"/>
	<polygon class="st0" points="436.7,24.6 436.7,24.5 437,23.2 436.9,23.1 436.6,24.5 436.7,24.5 436.7,24.6 436.7,24.6 436.7,24.5 
		436.7,24.6 436.7,24.6 	"/>
	<polygon class="st0" points="435.1,24.5 435.1,24.6 436.7,24.6 436.7,24.5 435.1,24.5 435.1,24.5 435.1,24.5 435.1,24.6 
		435.1,24.6 435.1,24.5 435.1,24.5 	"/>
	<polygon class="st0" points="435.2,23.9 435.1,23.8 435.1,23.9 435.1,24.1 435.1,24.3 435.1,24.5 435.1,24.5 435.2,24.3 
		435.2,24.1 435.2,23.9 435.2,23.9 435.1,23.8 435.2,23.9 435.2,23.9 	"/>
	<polygon class="st0" points="432.7,24.6 432.7,24.6 432.9,24.7 433.1,24.7 433.3,24.7 433.4,24.7 433.6,24.6 433.8,24.6 434,24.6 
		434.1,24.5 434.3,24.5 434.5,24.4 434.6,24.3 434.8,24.2 434.9,24.1 435,24 435.1,23.9 435.2,23.9 435.1,23.8 435,23.9 434.9,24 
		434.8,24.1 434.7,24.1 434.6,24.2 434.4,24.3 434.3,24.4 434.1,24.4 434,24.5 433.8,24.5 433.6,24.6 433.4,24.6 433.3,24.6 
		433.1,24.6 432.9,24.6 432.8,24.6 432.8,24.6 432.7,24.6 432.7,24.6 	"/>
	<polygon class="st0" points="431.2,22.8 431.2,22.8 431.2,22.9 431.3,23 431.3,23.2 431.3,23.3 431.3,23.5 431.4,23.6 431.4,23.8 
		431.5,23.9 431.6,24 431.7,24.1 431.8,24.3 432,24.4 432.1,24.5 432.3,24.5 432.5,24.6 432.7,24.6 432.8,24.6 432.5,24.5 
		432.3,24.5 432.2,24.4 432,24.3 431.9,24.2 431.8,24.1 431.7,24 431.6,23.8 431.5,23.7 431.5,23.6 431.4,23.5 431.4,23.3 
		431.3,23.2 431.3,23 431.3,22.9 431.3,22.8 431.3,22.8 431.2,22.8 431.2,22.8 	"/>
	<polygon class="st0" points="433.5,20.4 433.5,20.4 433.3,20.4 433,20.5 432.8,20.5 432.6,20.6 432.4,20.7 432.3,20.8 432.1,21 
		431.9,21.1 431.8,21.3 431.6,21.4 431.5,21.6 431.4,21.8 431.3,22 431.3,22.3 431.3,22.5 431.2,22.8 431.3,22.8 431.3,22.5 
		431.4,22.3 431.4,22.1 431.5,21.9 431.6,21.7 431.7,21.5 431.8,21.3 432,21.2 432.1,21 432.3,20.9 432.5,20.8 432.7,20.7 
		432.9,20.6 433.1,20.5 433.3,20.5 433.5,20.4 433.5,20.4 433.5,20.4 433.5,20.4 	"/>
	<polygon class="st0" points="434.8,20.2 434.8,20.2 434.7,20.2 434.6,20.2 434.5,20.2 434.4,20.3 434.3,20.3 434.2,20.3 
		434.1,20.3 434,20.3 433.9,20.3 433.8,20.3 433.7,20.3 433.6,20.3 433.6,20.3 433.5,20.4 433.5,20.4 433.5,20.4 433.5,20.4 
		433.5,20.4 433.5,20.4 433.6,20.4 433.6,20.4 433.7,20.4 433.8,20.4 433.9,20.4 434,20.4 434.1,20.4 434.2,20.3 434.3,20.3 
		434.4,20.3 434.5,20.3 434.6,20.3 434.7,20.3 434.8,20.3 434.8,20.3 434.8,20.2 434.8,20.2 	"/>
	<polygon class="st0" points="435.6,20.3 435.6,20.3 435.6,20.3 435.6,20.3 435.5,20.3 435.4,20.2 435.2,20.2 435.1,20.2 
		434.9,20.2 434.8,20.2 434.8,20.3 434.9,20.3 435.1,20.3 435.2,20.3 435.4,20.3 435.5,20.3 435.6,20.3 435.6,20.3 435.6,20.3 
		435.7,20.3 435.6,20.3 435.7,20.3 435.7,20.3 435.6,20.3 435.6,20.3 	"/>
	<polygon class="st0" points="435.7,19.9 435.7,19.9 435.7,20 435.6,20.1 435.6,20.3 435.6,20.3 435.7,20.3 435.7,20.3 435.7,20.1 
		435.7,20 435.8,19.9 435.8,19.9 435.7,19.9 435.7,19.9 	"/>
	<polygon class="st0" points="434.9,19.3 434.9,19.3 435.1,19.3 435.2,19.3 435.3,19.4 435.4,19.5 435.5,19.5 435.6,19.6 
		435.6,19.8 435.7,19.9 435.8,19.9 435.7,19.8 435.7,19.6 435.6,19.5 435.5,19.4 435.4,19.3 435.2,19.3 435.1,19.2 434.9,19.2 
		434.9,19.2 434.9,19.3 434.9,19.3 	"/>
	<polygon class="st0" points="432.2,19.6 432.3,19.6 432.4,19.6 432.5,19.5 432.6,19.5 432.7,19.5 432.8,19.4 433,19.4 433.2,19.4 
		433.4,19.3 433.6,19.3 433.8,19.3 434,19.3 434.2,19.3 434.4,19.3 434.6,19.3 434.8,19.3 434.9,19.3 434.9,19.2 434.8,19.2 
		434.6,19.2 434.4,19.2 434.2,19.2 434,19.2 433.8,19.2 433.6,19.2 433.4,19.3 433.2,19.3 433,19.3 432.8,19.4 432.7,19.4 
		432.5,19.4 432.4,19.5 432.3,19.5 432.3,19.5 432.3,19.6 432.2,19.6 432.2,19.6 	"/>
	<polygon class="st0" points="432.7,18 432.7,18.1 432.2,19.6 432.3,19.6 432.8,18.1 432.7,18.1 432.7,18 432.7,18 432.7,18.1 
		432.7,18 432.7,18 	"/>
	<polygon class="st0" points="435.5,17.8 435.5,17.8 435.3,17.7 435.1,17.7 434.9,17.7 434.7,17.7 434.5,17.7 434.3,17.7 
		434.1,17.8 433.9,17.8 433.8,17.8 433.6,17.8 433.4,17.8 433.3,17.9 433.1,17.9 433,17.9 432.8,18 432.7,18 432.7,18.1 432.9,18 
		433,18 433.1,18 433.3,17.9 433.5,17.9 433.6,17.9 433.8,17.8 433.9,17.8 434.1,17.8 434.3,17.8 434.5,17.8 434.7,17.8 434.9,17.8 
		435.1,17.8 435.3,17.8 435.5,17.8 435.5,17.8 435.5,17.8 435.5,17.8 	"/>
	<polygon class="st0" points="437.6,19.9 437.6,19.9 437.7,19.6 437.7,19.4 437.6,19.1 437.5,19 437.5,18.8 437.3,18.6 437.2,18.4 
		437,18.3 436.8,18.2 436.6,18 436.5,18 436.3,17.9 436,17.8 435.9,17.8 435.7,17.8 435.5,17.8 435.5,17.8 435.7,17.8 435.9,17.9 
		436,17.9 436.2,18 436.4,18 436.6,18.1 436.8,18.2 437,18.3 437.1,18.5 437.3,18.6 437.4,18.8 437.5,19 437.5,19.2 437.6,19.4 
		437.6,19.6 437.6,19.9 437.6,19.9 437.6,19.9 437.6,19.9 	"/>
	<polygon class="st0" points="437,23.2 437,23.2 437.6,19.9 437.6,19.9 436.9,23.1 436.9,23.1 437,23.2 437,23.2 	"/>
	<polygon class="st5" points="435.4,21.5 435.4,21.5 435.4,21.5 435.4,21.4 435.3,21.4 435.2,21.4 435.1,21.4 435,21.4 434.9,21.4 
		434.9,21.4 434.8,21.4 434.6,21.5 434.5,21.5 434.5,21.5 434.4,21.5 434.3,21.5 434.2,21.5 434.2,21.5 434.1,21.5 434.1,21.6 
		434,21.6 433.9,21.6 433.9,21.7 433.8,21.7 433.7,21.8 433.6,21.8 433.5,21.9 433.5,22 433.4,22 433.3,22.1 433.3,22.2 433.2,22.3 
		433.2,22.4 433.2,22.6 433.3,22.8 433.3,22.9 433.4,23 433.5,23.1 433.6,23.1 433.7,23.1 433.8,23.2 434,23.1 434.1,23.1 
		434.3,23.1 434.5,23.1 434.6,23 434.7,23 434.8,22.9 434.9,22.8 435,22.8 435.1,22.7 435.2,22.6 435.2,22.5 435.3,22.4 435.3,22.4 
		435.3,22.3 435.3,22.2 435.4,22 435.4,21.9 435.4,21.7 435.4,21.5 435.4,21.5 	"/>
	<polygon class="st0" points="448.3,23.7 448.3,23.5 448.4,23.4 448.5,23.2 448.6,23.1 448.7,23 448.8,22.9 449,22.9 449.2,22.9 
		449.4,22.9 449.5,22.9 449.7,23 449.8,23.1 449.9,23.2 450,23.4 450,23.5 450.1,23.7 449.9,23.7 449.9,23.6 449.8,23.4 449.8,23.3 
		449.7,23.2 449.6,23.1 449.5,23.1 449.3,23 449.2,23 449,23 448.9,23.1 448.8,23.1 448.7,23.2 448.6,23.3 448.5,23.4 448.5,23.6 
		448.5,23.7 448.3,23.7 448.3,23.7 	"/>
	<polygon class="st0" points="448.9,23.7 448.9,23.3 449.2,23.3 449.3,23.3 449.4,23.3 449.4,23.4 449.5,23.4 449.5,23.4 
		449.5,23.5 449.5,23.5 449.5,23.5 449.5,23.6 449.5,23.6 449.5,23.7 449.5,23.7 449.2,23.7 449.2,23.7 449.3,23.7 449.3,23.7 
		449.4,23.6 449.4,23.6 449.4,23.6 449.4,23.6 449.4,23.5 449.4,23.5 449.4,23.5 449.4,23.5 449.3,23.5 449.3,23.5 449.3,23.5 
		449.3,23.5 449.2,23.5 449,23.5 449,23.7 448.9,23.7 448.9,23.7 	"/>
	<polygon class="st0" points="448.3,23.7 448.3,23.7 448.3,23.9 448.4,24.1 448.5,24.2 448.6,24.4 448.7,24.5 448.8,24.5 449,24.6 
		449.2,24.6 449.4,24.6 449.5,24.5 449.7,24.5 449.8,24.4 449.9,24.2 450,24.1 450,23.9 450.1,23.7 450.1,23.7 449.9,23.7 
		449.9,23.7 449.9,23.9 449.8,24 449.8,24.1 449.7,24.2 449.6,24.3 449.5,24.4 449.3,24.4 449.2,24.5 449,24.4 448.9,24.4 
		448.8,24.3 448.7,24.2 448.6,24.1 448.5,24 448.5,23.9 448.5,23.7 448.5,23.7 448.3,23.7 448.3,23.7 	"/>
	<polygon class="st0" points="448.9,23.7 448.9,24.1 449,24.1 449,23.8 449.2,23.8 449.4,24.1 449.5,24.1 449.3,23.8 449.4,23.8 
		449.4,23.8 449.4,23.7 449.5,23.7 449.5,23.7 449.2,23.7 449.2,23.7 449,23.7 449,23.7 448.9,23.7 448.9,23.7 	"/>
	<path class="st7" d="M448.3,23.7L448.3,23.7v-0.2l0-0.2l0.1-0.1l0.1-0.1l0.1-0.1l0.1-0.1l0.2,0h0.2l0,0h0.2l0.2,0l0.1,0.1l0.1,0.1
		l0.1,0.1l0.1,0.1l0,0.2v0.2l0,0v0.2l0,0.2l-0.1,0.1l-0.1,0.1l-0.1,0.1l-0.1,0.1l-0.2,0h-0.2l0,0H449l-0.2,0l-0.1-0.1l-0.1-0.1
		l-0.1-0.1l-0.1-0.1l0-0.2V23.7 M449,24.1h-0.2v-0.8h0.5h0l0,0l0,0l0,0v0.1l0,0v0.1l0,0l0,0l0,0h-0.1l0.2,0.3h-0.1l-0.2-0.3H449v0.3
		 M449.2,23.4h0.2l0,0v-0.1l0,0v-0.1H449v0.3h0.2 M449.2,24.3h0.1h0.1l0.1-0.1l0.1-0.1l0.1-0.1l0.1-0.1v-0.1v-0.1l0,0v-0.1v-0.1
		l-0.1-0.1l-0.1-0.1l-0.1-0.1l-0.1-0.1h-0.1H449h-0.1l-0.1,0.1l-0.1,0.1l-0.1,0.1l-0.1,0.1v0.1v0.1l0,0v0.1v0.1l0.1,0.1l0.1,0.1
		l0.1,0.1l0.1,0.1h0.1H449.2"/>
	<polygon class="st0" points="437.4,24.5 439.2,24.5 439.2,24.5 439.8,21 439.8,20.9 439.9,20.7 439.9,20.6 440,20.4 440,20.3 
		440.1,20.2 440.2,20 440.3,19.9 440.4,19.8 440.5,19.7 440.6,19.6 440.8,19.5 441,19.5 441.2,19.4 441.4,19.4 441.7,19.4 
		441.8,19.4 441.8,19.4 441.8,19.4 441.8,19.4 442.1,17.8 441.9,17.8 441.8,17.8 441.6,17.8 441.5,17.9 441.3,17.9 441.2,18 
		441,18.1 440.9,18.1 440.8,18.2 440.7,18.3 440.6,18.4 440.5,18.5 440.4,18.6 440.3,18.8 440.2,18.9 440.1,19 440.3,17.9 
		438.6,17.9 437.4,24.5 437.4,24.5 437.4,24.5 	"/>
	<polyline class="st7" points="437.4,24.5 439.2,24.5 439.2,24.5 439.8,21 439.8,21 439.8,20.9 439.9,20.7 439.9,20.6 440,20.4 
		440,20.3 440.1,20.2 440.2,20 440.3,19.9 440.4,19.8 440.5,19.7 440.6,19.6 440.8,19.5 441,19.5 441.2,19.4 441.4,19.4 441.7,19.4 
		441.7,19.4 441.8,19.4 441.8,19.4 441.8,19.4 441.8,19.4 442.1,17.8 442.1,17.8 441.9,17.8 441.8,17.8 441.6,17.8 441.5,17.9 
		441.3,17.9 441.2,18 441,18.1 440.9,18.1 440.8,18.2 440.7,18.3 440.6,18.4 440.5,18.5 440.4,18.6 440.3,18.8 440.2,18.9 440.1,19 
		440.3,17.9 438.6,17.9 437.4,24.5 437.4,24.5 	"/>
	<polygon class="st0" points="420.9,24.5 422.6,24.5 422.6,24.5 423.3,21 423.3,20.9 423.3,20.7 423.3,20.6 423.4,20.5 423.4,20.3 
		423.5,20.2 423.6,20.1 423.6,20 423.8,19.9 423.9,19.8 424,19.7 424.1,19.7 424.3,19.6 424.5,19.6 424.7,19.5 425,19.5 425,19.5 
		425,19.5 425,19.5 425.1,19.5 425.1,19.5 425.1,19.5 425.2,19.5 425.2,19.5 425.2,19.5 425.2,19.5 425.2,19.3 425.3,19.2 425.3,19 
		425.3,18.9 425.4,18.7 425.5,18.5 425.5,18.4 425.6,18.3 425.6,18.1 425.7,18 425.7,18 425.8,17.9 425.8,17.8 425.8,17.8 
		425.8,17.8 425.8,17.8 425.8,17.8 425.7,17.8 425.7,17.8 425.6,17.8 425.6,17.8 425.5,17.8 425.4,17.8 425.2,17.8 425,17.8 
		424.9,17.9 424.7,17.9 424.6,18 424.5,18.1 424.4,18.1 424.3,18.2 424.1,18.3 424,18.4 424,18.5 423.9,18.6 423.8,18.7 423.7,18.9 
		423.6,19 423.8,17.9 422,17.9 420.9,24.5 420.9,24.5 420.9,24.5 	"/>
	<polyline class="st7" points="420.9,24.5 422.6,24.5 422.6,24.5 423.3,21 423.3,21 423.3,20.9 423.3,20.7 423.3,20.6 423.4,20.5 
		423.4,20.3 423.5,20.2 423.6,20.1 423.6,20 423.8,19.9 423.9,19.8 424,19.7 424.1,19.7 424.3,19.6 424.5,19.6 424.7,19.5 425,19.5 
		425,19.5 425,19.5 425,19.5 425,19.5 425.1,19.5 425.1,19.5 425.1,19.5 425.2,19.5 425.2,19.5 425.2,19.5 425.2,19.5 425.2,19.5 
		425.2,19.3 425.3,19.2 425.3,19 425.3,18.9 425.4,18.7 425.5,18.5 425.5,18.5 425.5,18.4 425.6,18.3 425.6,18.1 425.7,18 425.7,18 
		425.8,17.9 425.8,17.8 425.8,17.8 425.8,17.8 425.8,17.8 425.8,17.8 425.8,17.8 425.7,17.8 425.7,17.8 425.6,17.8 425.6,17.8 
		425.5,17.8 425.5,17.8 425.4,17.8 425.2,17.8 425,17.8 424.9,17.9 424.7,17.9 424.6,18 424.5,18.1 424.4,18.1 424.3,18.2 
		424.1,18.3 424,18.4 424,18.5 423.9,18.6 423.8,18.7 423.7,18.9 423.6,19 423.8,17.9 422,17.9 420.9,24.5 420.9,24.5 	"/>
	<polygon class="st8" points="289.8,34.7 294.9,5.1 303,5.1 297.9,34.7 	"/>
	<path class="st8" d="M327.2,5.9c-2.3-0.8-4.8-1.3-7.2-1.2c-8,0-13.6,4-13.6,9.8c0,4.2,4,6.6,7.1,8s4.2,2.4,4.2,3.7
		c0,2-2.5,2.9-4.8,2.9c-2.6,0.1-5.2-0.5-7.6-1.5l-1-0.5l-1.1,6.7c2.9,1.1,5.9,1.6,9,1.6c8.5,0,14-4,14-10.1c0-3.4-2.1-5.9-6.8-8
		c-2.8-1.4-4.5-2.3-4.5-3.7c0-1.2,1.5-2.6,4.6-2.6c2.1,0,4.1,0.3,6,1.1l0.7,0.3L327.2,5.9"/>
	<path class="st8" d="M347.9,5.2h-6.2c-1.9,0-3.4,0.5-4.2,2.4l-12,27.1h8.5c0,0,1.4-3.6,1.7-4.5h10.3c0.2,1,1,4.4,1,4.4h7.5
		L347.9,5.2 M337.9,24.2c0.7-1.7,3.2-8.3,3.2-8.3s0.7-1.7,1.1-2.8l0.6,2.6l1.9,8.6H337.9z"/>
	<path class="st8" d="M283.1,5.2l-7.9,20.2l-0.8-4.1c-1.5-4.7-6-9.9-11.2-12.4l7.2,25.9h8.5l12.7-29.5L283.1,5.2"/>
	<path class="st9" d="M267.8,5.1h-13l-0.1,0.6c10.1,2.5,16.8,8.4,19.6,15.5l-2.8-13.6C271,5.8,269.6,5.2,267.8,5.1"/>
	
		<image style="overflow:visible;" width="1117" height="529" xlink:href="airtel.png"  transform="matrix(7.775993e-02 0 0 7.775993e-02 139.3461 4.1825)">
	</image>
</g>
</svg>
